<?xml version="1.0" encoding="utf-8"?>
<!-- Generator: Adobe Illustrator 24.3.0, SVG Export Plug-In . SVG Version: 6.00 Build 0)  -->
<svg version="1.1" id="Layer_1" xmlns="http://www.w3.org/2000/svg" xmlns:xlink="http://www.w3.org/1999/xlink" x="0px" y="0px"
	 viewBox="0 0 32 32" style="enable-background:new 0 0 32 32;" xml:space="preserve">
<style type="text/css">
	.st0{fill:#F16FD3;}
	.st1{fill:#FFBABD;}
	.st2{fill:#F36B8D;}
	.st3{fill:#ED3637;}
	.st4{fill:#FFFFFF;}
	.st5{fill:#242424;}
	.st6{fill:#FE3A3B;}
	.st7{fill:#030001;}
	.st8{fill:#BE3863;}
</style>
<g>
	<g>
		<circle class="st0" cx="16" cy="16" r="16"/>
	</g>
	<g>
		<g>
			<g id="XMLID_3_">
				<g>
					<g>
						<path class="st1" d="M29.91,8.64c0.07,0.07,0.1,0.21-0.01,0.59c0.02-0.08,0.03-0.42-0.35-0.42c-1.39,0-3.44,0.91-5.42,1.72
							c-1.98,0.81-3.19,2.77-3.19,2.77c-0.38-0.33-0.81-0.64-1.3-0.89c0.71-0.99,1.46-1.89,2.95-2.53
							C24.09,9.25,29.5,8.23,29.91,8.64z"/>
						<path class="st2" d="M29.56,8.81c0.38,0,0.37,0.34,0.35,0.42c-0.08,0.31-0.26,0.77-0.57,1.48c-0.28,0.66-0.4,1.71-0.86,2.59
							c-1.3,2.53-2.23,4.76-3.63,4.76c-1.26,0-1.61-0.68-1.61-0.68c-0.28-1.37-0.98-2.91-2.29-4.07c0,0,1.2-1.96,3.19-2.77
							C26.12,9.72,28.16,8.81,29.56,8.81z"/>
					</g>
					<g>
						<path class="st1" d="M2.15,8.64c-0.07,0.07-0.1,0.21,0.01,0.59C2.13,9.15,2.12,8.81,2.5,8.81c1.39,0,3.44,0.91,5.42,1.72
							c1.98,0.81,3.19,2.77,3.19,2.77c0.38-0.33,0.81-0.64,1.3-0.89c-0.71-0.99-1.46-1.89-2.95-2.53C7.96,9.25,2.56,8.23,2.15,8.64z
							"/>
						<path class="st2" d="M2.5,8.81c-0.38,0-0.37,0.34-0.35,0.42C2.24,9.54,2.41,10,2.72,10.71c0.28,0.66,0.4,1.71,0.86,2.59
							c1.3,2.53,2.23,4.76,3.63,4.76c1.26,0,1.61-0.68,1.61-0.68c0.28-1.37,0.98-2.91,2.29-4.07c0,0-1.2-1.96-3.19-2.77
							C5.94,9.72,3.89,8.81,2.5,8.81z"/>
					</g>
					<path class="st1" d="M23.4,18.7c0-0.43-0.05-0.92-0.15-1.43c-0.28-1.37-0.98-2.91-2.29-4.07c-0.38-0.33-0.81-0.64-1.3-0.89
						c-1.03-0.54-2.05-0.87-3.63-0.87s-2.6,0.33-3.63,0.87c-0.49,0.26-0.92,0.56-1.3,0.89c-1.32,1.16-2.01,2.71-2.29,4.07
						c-0.11,0.51-0.15,1-0.15,1.43c0,1.18-0.6,1.52-0.6,3.74c0,1.54,0.79,3.26,2.15,4.63c0,0,0,0,0,0c1.46,1.46,3.31,2.52,5.82,2.52
						s4.36-1.06,5.82-2.52c0,0,0,0,0,0C23.21,25.7,24,23.98,24,22.44C24,20.22,23.4,19.88,23.4,18.7z"/>
				</g>
			</g>
			<g>
				<g id="XMLID_2_">
					<g>
						<path class="st3" d="M17.63,13.47c0.36-0.09,0.69-0.17,0.99-0.26c0,0-1.15,1.87-5.56,2.84c-2.99,0.66-7.17,0.61-7.19-0.11
							c-0.02-0.49,3.58-1.59,3.58-1.59s1.3,0.25,4.03-0.13c1.69-0.23,3.03-0.49,4.09-0.74L17.63,13.47
							C17.63,13.47,17.63,13.47,17.63,13.47z"/>
						<path class="st4" d="M21.29,11.84c0.05,0.14,0,0.3-0.13,0.37c-0.32,0.2-1.06,0.58-2.54,1c-0.3,0.08-0.63,0.17-0.99,0.26
							c-0.01-0.09-0.15-1.1-0.37-2.3c-0.21-1.15-0.53-2.73-0.89-3.65c-0.27-0.71-0.88-1.2-1.75-1.41c-0.09-0.02-0.18-0.04-0.27-0.06
							c0.12-0.02,0.24-0.03,0.37-0.03c2.78-0.18,4.17,0.55,4.78,1.5C20.06,8.39,21.01,11.05,21.29,11.84z"/>
						<path class="st5" d="M17.63,13.47l-0.06,0.01C17.59,13.48,17.61,13.47,17.63,13.47C17.63,13.47,17.63,13.47,17.63,13.47z"/>
						<path class="st6" d="M17.26,11.17c-0.21-1.15-0.53-2.73-0.89-3.65c-0.27-0.71-0.88-1.2-1.75-1.41
							c-0.09-0.02-0.18-0.04-0.27-0.06c-0.16,0.02-0.32,0.05-0.48,0.08c-2.45,0.49-4.59,2.3-4.76,3.87
							c-0.18,1.76,0.34,4.35,0.34,4.35s1.3,0.25,4.03-0.13c1.69-0.23,3.03-0.49,4.09-0.74c0.02,0,0.04-0.01,0.06-0.01
							C17.62,13.38,17.48,12.37,17.26,11.17z"/>
					</g>
				</g>
			</g>
		</g>
		<g>
			<g>
				<g>
					<g>
						<ellipse class="st7" cx="11.78" cy="17.99" rx="0.72" ry="0.94"/>
						<circle class="st4" cx="11.68" cy="17.61" r="0.31"/>
					</g>
					<path class="st2" d="M19.13,23.54c0,0.64-0.32,1.04-0.86,1.21c-0.22,0.07-0.47,0.11-0.74,0.11c-0.81,0-1.34-0.25-1.49-0.25
						c-0.14,0-0.68,0.25-1.49,0.25c-0.28,0-0.53-0.03-0.74-0.11c-0.54-0.18-0.86-0.57-0.86-1.21c0-1.62,2.18-3.2,3.09-3.2
						C16.95,20.34,19.13,21.93,19.13,23.54z M18.16,23.76c0.19-0.19-0.61-1.26-1.14-1.26c-0.32,0-0.52,0.19-0.52,0.43
						C16.5,23.3,18.02,23.9,18.16,23.76z M15.58,22.94c0-0.24-0.2-0.43-0.52-0.43c-0.53,0-1.33,1.07-1.14,1.26
						C14.06,23.9,15.58,23.3,15.58,22.94z"/>
					<path class="st8" d="M17.02,22.5c0.53,0,1.33,1.07,1.14,1.26c-0.14,0.14-1.66-0.46-1.66-0.82C16.5,22.69,16.7,22.5,17.02,22.5z
						"/>
					<path class="st8" d="M14.94,25.43c0.19,0.03,0.37,0.06,0.55,0.08c0.18,0.02,0.36,0.02,0.55,0.02c0.18,0,0.36-0.01,0.55-0.02
						c0.18-0.02,0.36-0.05,0.55-0.08c0.01,0,0.02,0,0.02,0.01c0,0.01,0,0.01-0.01,0.02c-0.16,0.1-0.35,0.17-0.53,0.22
						c-0.19,0.04-0.38,0.06-0.58,0.06c-0.19,0-0.39-0.02-0.58-0.06c-0.19-0.04-0.37-0.11-0.53-0.22c-0.01,0-0.01-0.02-0.01-0.02
						C14.93,25.43,14.94,25.43,14.94,25.43z"/>
					<path class="st8" d="M15.06,22.5c0.32,0,0.52,0.19,0.52,0.43c0,0.36-1.52,0.96-1.66,0.82C13.73,23.57,14.54,22.5,15.06,22.5z"
						/>
					<g>
						<ellipse class="st7" cx="20.3" cy="17.99" rx="0.72" ry="0.94"/>
						<circle class="st4" cx="20.21" cy="17.61" r="0.31"/>
					</g>
				</g>
			</g>
		</g>
	</g>
</g>
</svg>
